# xmcd CD database file
# Copyright (C) 1993-1998 Ti Kan
# 
# Track frame offsets:
#     175
#     18635
#     30657
#     46300
#     61730
#     74520
#     86290
#     102337
#     115772
#     129825
#     139452
#     152967
#     167745
# 
# Disc length: 2440 seconds
# 
# Revision: 1
# Processed by: cddbd v1.4b41PL1 Copyright (c) Steve Scherf et al.
# Submitted via: DiscPlay 4.0.4
# 
DISCID=ac09860d
DTITLE=SCARECROW'S SHADOW - SCARECROW'S SHADOW
DYEAR=1900
DGENRE=
TTITLE0=IF LOVE WERE A DRUM
TTITLE1=DESERT ROSE
TTITLE2=THORNBIRD
TTITLE3=LONG TIME AGO
TTITLE4=DREAM
TTITLE5=RATTLESNAKE JOE
TTITLE6=LOW RIDIN'
TTITLE7=HARD TIMES TANGO
TTITLE8=HANGON' OVER
TTITLE9=WHAT TO DO IN A RAINY DAY
TTITLE10=IF YOU DON'T KNOW ME
TTITLE11=HELLO TOMMOROW
TTITLE12=BLUE MOUNTAIN SONG
EXTD=
EXTT0=
EXTT1=
EXTT2=
EXTT3=
EXTT4=
EXTT5=
EXTT6=
EXTT7=
EXTT8=
EXTT9=
EXTT10=
EXTT11=
EXTT12=
PLAYORDER=
